/* XPM */
static char * close_inactive_xpm[] = {
"18 18 20 1",
" 	c None",
".	c #31363B",
"+	c #31373C",
"@	c #464D51",
"#	c #606A6D",
"$	c #737F80",
"%	c #7B8889",
"&	c #3D4347",
"*	c #6D7879",
"=	c #7F8C8D",
"-	c #434A4F",
";	c #7A8688",
">	c #6A7577",
",	c #697576",
"'	c #343A3E",
")	c #677273",
"!	c #606A6C",
"~	c #33393D",
"{	c #6C7779",
"]	c #7A8788",
"....+@#$%%$#@+....",
"...&*========*&...",
"..-;==========;-..",
".&;============;&.",
"+*==*>======,*==*+",
"@===,')====)'>===@",
"#====)')==)')====!",
"$=====)'))')=====$",
"%======)~~)======%",
"%======)~~)======%",
"$=====)'))')=====$",
"#====)')==)')====!",
"@===>')====)',===@",
"+*==*,======>*=={+",
".&;============]&.",
"..-;==========]-..",
"...&*========*&...",
"....+@!$%%$!@+...."};
