/* XPM */
static char * hide_inactive_xpm[] = {
"18 18 8 1",
" 	c None",
".	c #31363B",
"+	c #434A4F",
"@	c #464D51",
"#	c #474D52",
"$	c #7C888A",
"%	c #495055",
"&	c #7F8C8D",
"..................",
"..................",
"..................",
"..................",
"..................",
"..................",
"...+@........#+...",
"...#$%......%$@...",
"....%$%....%$%....",
".....%$%..%$%.....",
"......%$%%$%......",
".......%&&%.......",
"........%%........",
"..................",
"..................",
"..................",
"..................",
".................."};
