/* XPM */
static char * maximize_toggled_pressed_xpm[] = {
"18 18 18 1",
" 	c None",
".	c #31363B",
"+	c #41454A",
"@	c #53585C",
"#	c #61656A",
"$	c #676C70",
"%	c #3A3E43",
"&	c #5D6165",
"*	c #6A6E72",
"=	c #3E4348",
"-	c #666A6F",
";	c #5A5F63",
">	c #54585D",
",	c #585D61",
"'	c #34393D",
")	c #53575C",
"!	c #5C6064",
"~	c #666B6E",
".....+@#$$#@+.....",
"...%&********&%...",
"..=-**********-=..",
".%-*****;>*****-%.",
".&*****,..,*****&.",
"+*****,',,',*****+",
"@****,',**,',****)",
"#***,',****,',***#",
"$**;.,******,.;**$",
"$**;.,******,.;**$",
"#***,',****,',***#",
"@****,',**,',****)",
"+*****,',,',*****+",
".&*****,..,*****!.",
".%-*****;;*****~%.",
"..=-**********~=..",
"...%&********&%...",
".....+)#$$#)+....."};
