/* XPM */
static char * maximize_inactive_xpm[] = {
"18 18 8 1",
" 	c None",
".	c #31363B",
"+	c #495055",
"@	c #7F8C8D",
"#	c #7C888A",
"$	c #464D51",
"%	c #474D52",
"&	c #434A4F",
"..................",
"..................",
"..................",
"..................",
"..................",
"........++........",
".......+@@+.......",
"......+#++#+......",
".....+#+..+#+.....",
"....+#+....+#+....",
"...$#+......+#%...",
"...&%........$&...",
"..................",
"..................",
"..................",
"..................",
"..................",
".................."};
