/* XPM */
static char * stick_toggled_prelight_xpm[] = {
"18 18 22 1",
" 	c None",
".	c #31363B",
"+	c #32373C",
"@	c #65686C",
"#	c #A4A7A9",
"$	c #D1D3D5",
"%	c #E6E8E9",
"&	c #4E5256",
"*	c #C2C4C5",
"=	c #EFF0F1",
"-	c #5E6267",
";	c #E3E4E6",
">	c #EDEEEF",
",	c #A3A6A9",
"'	c #5A5E62",
")	c #3A3E43",
"!	c #DBDDDD",
"~	c #616468",
"{	c #606468",
"]	c #C6C8CA",
"^	c #C1C3C4",
"/	c #E2E4E5",
"....+@#$%%$#@+....",
"...&*========*&...",
"..-;==========;-..",
".&;==>,'))',>==;&.",
"+*==!~......~!==*+",
"@==>{........~>==@",
"#==,..........,==,",
"$=='..........'==$",
"%==)....]]....)==%",
"%==)....]]....)==%",
"$=='..........'==$",
"#==,..........,==,",
"@==>~........~>==@",
"+*==!~......~!==^+",
".&;==>,'))',>==/&.",
"..-;==========/-..",
"...&*========*&...",
"....+@,$%%$,@+...."};
