/* XPM */
static char * stick_toggled_pressed_xpm[] = {
"18 18 22 1",
" 	c None",
".	c #31363B",
"+	c #41454A",
"@	c #53585C",
"#	c #61656A",
"$	c #676C70",
"%	c #3A3E43",
"&	c #5D6165",
"*	c #6A6E72",
"=	c #3E4348",
"-	c #666A6F",
";	c #696D71",
">	c #54585C",
",	c #3D4247",
"'	c #34383D",
")	c #64686C",
"!	c #404449",
"~	c #3F4448",
"{	c #53575C",
"]	c #5E6266",
"^	c #5C6064",
"/	c #666B6E",
".....+@#$$#@+.....",
"...%&********&%...",
"..=-**********-=..",
".%-**;>,'',>;**-%.",
".&**)!......!)**&.",
"+**;~........!;**+",
"@**>..........>**{",
"#**,..........,**#",
"$**'....]]....'**$",
"$**'....]]....'**$",
"#**,..........,**#",
"@**>..........>**{",
"+**;!........!;**+",
".&**)!......!)**^.",
".%-**;>,'',>;**/%.",
"..=-**********/=..",
"...%&********&%...",
".....+{#$$#{+....."};
