/* XPM */
static char * stick_prelight_xpm[] = {
"18 18 22 1",
" 	c None",
".	c #31363B",
"+	c #32373C",
"@	c #65686C",
"#	c #A4A7A9",
"$	c #D1D3D5",
"%	c #E6E8E9",
"&	c #4E5256",
"*	c #C2C4C5",
"=	c #EFF0F1",
"-	c #5E6267",
";	c #E3E4E6",
">	c #909396",
",	c #ECEDEE",
"'	c #A3A6A9",
")	c #404549",
"!	c #B4B7B8",
"~	c #373C40",
"{	c #34393D",
"]	c #393E42",
"^	c #C1C3C4",
"/	c #E2E4E5",
"....+@#$%%$#@+....",
"...&*========*&...",
"..-;==========;-..",
".&;========>>==;&.",
"+*========>..>==*+",
"@========>....>==@",
"#====,==>.....>=='",
"$===,)!>.....>===$",
"%====!~.....>====%",
"%=====!{...>=====%",
"$=====!~{.>======$",
"#====!]!!~!======'",
"@===!]!==!),=====@",
"+*=,)!====,=====^+",
".&;=,==========/&.",
"..-;==========/-..",
"...&*========*&...",
"....+@'$%%$'@+...."};
