/* XPM */
static char * close_prelight_xpm[] = {
"18 18 21 1",
" 	c None",
".	c #31363B",
"+	c #32373C",
"@	c #695057",
"#	c #AE7179",
"$	c #DF8992",
"%	c #F5949D",
"&	c #50454A",
"*	c #CE8189",
"=	c #FF98A2",
"-	c #624D54",
";	c #F2919C",
">	c #C77E86",
",	c #C67D86",
"'	c #3A3B3F",
")	c #BF7A82",
"!	c #AD7179",
"~	c #373A3D",
"{	c #37393E",
"]	c #CD8089",
"^	c #F1929B",
"....+@#$%%$#@+....",
"...&*========*&...",
"..-;==========;-..",
".&;============;&.",
"+*==*>======,*==*+",
"@===,')====)'>===@",
"#====)')==)')====!",
"$=====)'))')=====$",
"%======)~{)======%",
"%======){~)======%",
"$=====)'))')=====$",
"#====)')==)')====!",
"@===>')====)',===@",
"+*==*,======>*==]+",
".&;============^&.",
"..-;==========^-..",
"...&*========*&...",
"....+@!$%%$!@+...."};
