/* XPM */
static char * stick_toggled_active_xpm[] = {
"18 18 11 1",
" 	c None",
".	c #31363B",
"+	c #33383D",
"@	c #7D8083",
"#	c #C6C8CA",
"$	c #E6E8E9",
"%	c #45494F",
"&	c #BFC2C4",
"*	c #EFF0F1",
"=	c #C0C2C4",
"-	c #5A5E62",
"..................",
"..................",
"..................",
".....+@#$$#@+.....",
"....%&******&%....",
"...+=********&+...",
"...@**********@...",
"...#**********#...",
"...$****--****$...",
"...$****--****$...",
"...#**********#...",
"...@**********@...",
"...+&********&+...",
"....%&******&%....",
".....+@#$$#@+.....",
"..................",
"..................",
".................."};
